<?xml version="1.0" encoding="UTF-8" standalone="no"?>
<!DOCTYPE svg PUBLIC "-//W3C//DTD SVG 1.1//EN" "http://www.w3.org/Graphics/SVG/1.1/DTD/svg11.dtd">
<svg width="100%" height="100%" viewBox="0 0 1024 768" version="1.1" xmlns="http://www.w3.org/2000/svg" xmlns:xlink="http://www.w3.org/1999/xlink" xml:space="preserve" xmlns:serif="http://www.serif.com/" style="fill-rule:evenodd;clip-rule:evenodd;stroke-linecap:round;stroke-linejoin:round;stroke-miterlimit:1.5;">
    <path d="M160.847,167.216L156.106,257.385L157.956,222.199C157.956,222.199 180.487,211.294 196.741,212.991L204.19,176.085C204.19,176.085 192.34,243.592 189.776,258.599C189.465,260.419 189.291,261.467 189.291,261.529C189.291,262.095 208.46,231.639 244.099,218.886C244.099,218.886 212.317,233.651 215.704,251.937C215.704,251.937 236.541,265.345 246.624,224.074C246.624,224.074 242.794,245.164 248.889,246.519C254.984,247.873 278.688,216.636 294.265,217.694C294.265,217.694 251.598,239.746 269.206,250.582C286.815,261.418 311.873,239.069 334.899,176.762C334.899,176.762 305.778,239.427 313.228,259.227C313.228,259.227 313.775,260.838 339.51,213.2C339.51,213.2 297.633,247.499 350.194,257.68" style="fill:none;stroke:black;stroke-width:10.17px;"/>
    <path d="M385.96,242.455C385.96,242.455 386.37,245.841 402.624,227.556C402.624,227.556 394.497,247.873 400.593,249.228C406.688,250.582 420.233,235.683 433.101,225.524C433.101,225.524 422.265,274.286 398.561,291.217C374.857,308.148 451.244,229.182 467.908,218.549C467.908,218.549 445.968,250.582 462.222,251.937C478.476,253.291 502.715,216.72 467.908,225.524C467.908,225.524 478.1,218.845 482.69,225.232C487.28,231.619 477.122,243.132 484.571,246.519C492.021,249.905 501.503,225.106 512,219.897C512,219.897 498.794,249.228 512,251.259C512,251.259 523.852,241.101 534.011,226.878C534.011,226.878 525.466,258.709 547.685,241.778C547.685,241.778 556.61,229.169 568.337,219.897C568.337,219.897 587.763,219.429 568.337,251.937C568.337,251.937 565.925,262.095 591.619,244.487L631.534,236.109C631.534,236.109 652.33,222.32 654.362,179.901C656.323,138.959 613.249,268.868 631.534,287.831C649.82,306.794 633.566,253.968 672.847,221.46C672.847,221.46 662.011,256 674.878,249.905C674.878,249.905 684.36,247.873 696.55,228.233C696.55,228.233 691.815,257.354 709.082,241.778C726.349,226.201 737.185,216.066 744.635,182.869C744.635,182.869 750.053,202.497 718.899,198.434C718.899,198.434 746.883,199.463 746.537,199.463C746.19,199.463 729.942,196.343 729.224,244.194C729.224,244.194 724.691,271.634 764.914,222.199C764.914,222.199 753.472,241.42 764.221,252.516C764.221,252.516 766.301,258.758 788.147,231.018C788.147,231.018 783.639,244.888 793.695,245.234C793.695,245.234 808.274,233.711 813.475,220.188C813.475,220.188 828.385,219.494 819.717,254.863C819.717,254.863 870.342,229.55 860.633,212.213C850.924,194.875 824.571,274.975 868.609,245.501" style="fill:none;stroke:black;stroke-width:11.23px;"/>
</svg>
